<?xml version="1.0" encoding="utf-8"?>
<!-- Generator: Adobe Illustrator 15.0.0, SVG Export Plug-In . SVG Version: 6.00 Build 0)  -->
<!DOCTYPE svg PUBLIC "-//W3C//DTD SVG 1.1//EN" "http://www.w3.org/Graphics/SVG/1.1/DTD/svg11.dtd">
<svg version="1.1" id="Layer_1" xmlns="http://www.w3.org/2000/svg" xmlns:xlink="http://www.w3.org/1999/xlink" x="0px" y="0px"
	 width="1099.8px" height="1519.9px" viewBox="0 0 1099.8 1519.9" enable-background="new 0 0 1099.8 1519.9" xml:space="preserve">
<g id="Klingon_Space" display="none">
	<path display="inline" fill="none" stroke="#EE2C2C" stroke-width="0.363" stroke-miterlimit="10" d="M440,938.7
		c29.4,1.5,28.1,5.1,47.6,25.4c5.1,5.3,11.6,7.1,22.1,8c3.9,0.3,5.2,3.9,11.4,4.5c4.2,0.4,12.9-2.1,20.9,5.1
		c7.3,6.5,4.6,9.6,7.6,15.8c2,4,4.2,6.7,7.1,13.8c1.7,4.1-1.7,10,1,15.7c4,8.7,6.2,27.6,20,38.5c8.6,6.8,6.7,3.1,15.4,13.4
		c9.7,11.4,10.9,26.5,25.5,38.6c16.7,13.8,36.2,33.8,46,45.6c8.8,10.6,12.2,12.9,19.2,16.2c8.5,4,10.1,11.5,14,14.5
		c6.5,5.1,15.9,11.1,19.4,17.4c2.5,4.4,2.1,12.9,8.8,23.2c7.2,11.2,17.8,18.8,19.6,30.7c1.5,9.5,0.9,14.8-24.6,14.8
		c-11.9,0-281.1,0-281.1,0S440,946,440,938.7z"/>
</g>
<g id="Romulan_Space" display="none">
	<path display="inline" fill="none" stroke="#EE2C2C" stroke-width="0.363" stroke-miterlimit="10" d="M734,780
		c0,0-7.6,17-17.8,26.1c-8.3,7.5-9.2,16.1-8.5,21.6c0.8,6.7,2.6,6.8,4.1,10.8c1.8,4.6,1.5,6.7,2.7,9.3c1.4,2.9,3,3.5,2.6,8.1
		c-1.1,13.1-7.7,26.3-10.6,38.3c-1.4,5.7-8.2,21.8-8.1,26.9c0,2.1-0.2,6.5-1.6,9.1c-3.4,6.2-7.1,4.5-12.1,10.6
		c-5.3,6.5-8.9,20-6.2,28.3c3.5,10.7,10.5,21.4,20.1,27.6c11.1,7.1,16.5,11.2,18.9,17.4c6.2,16,2.1,28,0.2,42.8
		c-1.4,10.5,1.5,16.3,0.7,21.9c-2.2,16.1-8.2,15.8-8.9,24.9c-0.6,8.2,16.7,39.1,17.2,55.5c0.2,7.2-22.5,17.5-14,24.5
		c4.1,3.4,10.5,3.6,15.2,15.4c4.7,11.8,6.5,31.4,5.9,35.9c-0.9,7,12.5,14.6,13.7,24.5c0.8,7.1,5.6,8.1,7.7,15.6c1.8,3.5,3.3,5,6.8,5
		c2,0,22.8,0,22.8,0V780H734z"/>
</g>
<g id="UFP_Space" display="none">
	<path display="inline" fill="none" stroke="#EE2C2C" stroke-width="0.363" stroke-miterlimit="10" d="M440,917.5
		c0,0,11.8,11.5,23.3,12.2c14.9,0.8,43.9-21.8,58.5-21.8c7.1,0,14.5,12.7,31.7,12.7c12.2,0,35.5-1.1,47.3,0.3
		c7.3,0.9,11.4,0.1,18.3-11.4c4-6.7,9.5-12.4,10.8-21.3c2-13.8-6.5-16.4-6.3-26.4c0.2-9.3,11.7-19.7,27.5-25.2
		c15.6-5.4,25.1-3.6,31.8-5.6c6.2-1.9,10.2-5.5,7.6-19.4c-1.5-8.1,1.7-31.4,1.7-31.4H440V917.5z"/>
</g>
<g id="Turnstile" display="none">
	<path display="inline" fill="none" stroke="#EE2C2C" stroke-width="0.363" stroke-miterlimit="10" d="M481.9,928.9
		c0.1-2.7,3.2-2.9,5.8-4.2c3-1.6,5.9-1.8,6.9-1.5c5.3,1.8,6.9,4.1,13.3,4.1c12.9,0.1,16.6-6.2,25.1-5.2c5.4,0.6,7.9,7.9,4.6,11.7
		c-3.5,4.2-6.3,3.2-11,11.7c-2.8,5-5.8,9.5-9,16.5c-2,4.3-8.2,6.5-10.5,1.2c-1.7-3.9-2.4-6.8-10.1-17
		C489.8,936.9,481.8,933.7,481.9,928.9z"/>
</g>
<g id="IKS">
	<path fill="none" stroke="#EE2C2C" stroke-width="0.363" stroke-miterlimit="10" d="M651.3,905.6c2.8-3.9,8.7-4.8,12.2-10.6
		c1.1-1.8,0.5-4.7,1.8-8c2-4.8,7.8-8.7,11.2-11.6c3.5-3,8-1.9,8.8,2.5c0.8,4.5,0.2,6.4,2.3,10c2.1,3.6,2.1,3.6,5.8,7
		c3,2.8,3.1,8.7-2.1,9.6c-4.6,0.8-7.3-1.4-12,0.5c-5.1,2.1-4.7,4.8-10.9,7.4c-5.1,2.1-9,3.1-14,1.2
		C649.3,911.6,651.3,905.6,651.3,905.6z"/>
</g>
<g id="AOFW" display="none">
	<path display="inline" fill="none" stroke="#EE2C2C" stroke-width="0.369" stroke-miterlimit="10" d="M573.5,935.9
		c-2.4-5.1,0.9-11.5,8-11.5c6.6,0,3.7,0.2,12.1-0.2c8.4-0.5,28.7-2.5,34.4,0.1c5.7,2.6,12,5.5,16.2,13.3
		c4.2,7.8,12.9,40.5,12.2,51.8c-0.4,5.6-7,8.4-16.1,9.8c-8,1.2-21-6.9-29.7-9.9c-8.4-2.9-19-0.9-25.7-2.9c-4-1.2-6.6-3.3-8.2-7.1
		c-1.5-3.5,0.5-7.7,0-13.4c-0.6-7.2,0.4-8.6,0.4-12.2C577.1,948,576.5,942.3,573.5,935.9z"/>
</g>
<g id="MCA" display="none">
	<path display="inline" fill="none" stroke="#EE2C2C" stroke-width="0.363" stroke-miterlimit="10" d="M653.8,1095.2
		c-2.4-3,0.5-10.1,7.3-10.1s38.5,12.7,43.4,21.5c1.2,2.2,1.6,6.1,0.8,7.3c-2.1,3.2-6.2,2.9-9.7,1.8c-6.7-2-13.5-1.9-19.8,0.4
		c-3.3,1.2-5.7,1.6-7.9,0.4c-3.5-2-1.3-6.4-4.8-12.2C659.6,1098.5,656.2,1098.3,653.8,1095.2z"/>
</g>
<g id="Square" display="none">
	
		<rect x="440" y="780" display="inline" fill="none" stroke="#000000" stroke-width="0.3391" stroke-miterlimit="10" width="344.8" height="510"/>
</g>
</svg>
