<?xml version="1.0" encoding="utf-8"?>
<!-- Generator: Adobe Illustrator 15.0.0, SVG Export Plug-In . SVG Version: 6.00 Build 0)  -->
<!DOCTYPE svg PUBLIC "-//W3C//DTD SVG 1.1//EN" "http://www.w3.org/Graphics/SVG/1.1/DTD/svg11.dtd">
<svg version="1.1" id="Layer_1" xmlns="http://www.w3.org/2000/svg" xmlns:xlink="http://www.w3.org/1999/xlink" x="0px" y="0px"
	 width="1099.8px" height="1519.92px" viewBox="0 0 1099.8 1519.92" enable-background="new 0 0 1099.8 1519.92"
	 xml:space="preserve">
<g id="Bitmap" display="none">
	<g display="inline">
		<g>
			<defs>
				<rect id="SVGID_1_" x="-28.208" y="-21.622" width="398.649" height="551"/>
			</defs>
			<clipPath id="SVGID_2_">
				<use xlink:href="#SVGID_1_"  overflow="visible"/>
			</clipPath>
		</g>
	</g>
</g>
<g id="Klingon_Space" display="none">
	<path display="inline" fill="none" stroke="#EE2C2C" stroke-width="0.363" stroke-miterlimit="10" d="M0,158.719
		c29.402,1.452,28.114,5.082,47.595,25.409c5.062,5.282,11.616,7.139,22.082,7.985c3.927,0.317,5.15,3.909,11.434,4.538
		c4.235,0.423,12.856-2.069,20.875,5.081c7.26,6.474,4.562,9.594,7.623,15.79c1.953,3.952,4.222,6.709,7.14,13.794
		c1.693,4.113-1.663,9.99,0.968,15.729c3.992,8.712,6.228,27.587,20.021,38.537c8.596,6.823,6.659,3.139,15.367,13.37
		c9.68,11.374,10.89,26.498,25.529,38.598c16.673,13.778,36.158,33.775,45.979,45.615c8.832,10.648,12.225,12.908,19.237,16.214
		c8.471,3.993,10.119,11.474,14.036,14.521c6.534,5.08,15.851,11.131,19.42,17.423c2.523,4.447,2.149,12.945,8.805,23.23
		c7.237,11.187,17.764,18.813,19.64,30.695c1.5,9.5-9,20.5-24.625,24.75C269.267,510,0,510,0,510S0,165.979,0,158.719z"/>
</g>
<g id="Romulan_Space" display="none">
	<path display="inline" fill="none" stroke="#EE2C2C" stroke-width="0.363" stroke-miterlimit="10" d="M294.039,0
		c0,0-7.615,16.968-17.786,26.106c-8.349,7.501-9.174,16.104-8.53,21.598c0.786,6.715,2.602,6.775,4.113,10.769
		c1.749,4.617,1.452,6.655,2.723,9.317c1.393,2.917,2.989,3.461,2.602,8.106c-1.089,13.067-7.723,26.343-10.646,38.296
		c-1.393,5.687-8.196,21.779-8.136,26.921c0.025,2.14-0.214,6.51-1.634,9.075c-3.448,6.231-7.127,4.506-12.071,10.587
		c-5.264,6.475-8.894,20.026-6.171,28.254c3.544,10.713,10.526,21.418,20.146,27.589c11.056,7.092,16.49,11.251,18.875,17.362
		c6.233,15.972,2.144,28,0.183,42.833c-1.392,10.526,1.485,16.322,0.73,21.901c-2.178,16.092-8.188,15.838-8.894,24.864
		c-0.637,8.164,16.738,39.141,17.238,55.549c0.22,7.21-22.507,17.511-13.977,24.498c4.131,3.384,10.526,3.624,15.245,15.422
		c4.719,11.797,6.483,31.408,5.906,35.852c-0.908,6.986,12.527,14.589,13.702,24.501c0.842,7.101,5.592,8.101,7.729,15.609
		c4.181,14.691,6.807,14.99,6.807,14.99H345V0H294.039z"/>
</g>
<g id="UFP_Space" display="none">
	<path display="inline" fill="none" stroke="#EE2C2C" stroke-width="0.363" stroke-miterlimit="10" d="M0,137.462
		c0,0,11.814,11.516,23.253,12.164c14.943,0.847,43.861-21.844,58.501-21.844c7.139,0,14.52,12.68,31.701,12.68
		c12.161,0,35.544-1.128,47.289,0.271c7.33,0.873,11.434,0.061,18.331-11.434c4.016-6.694,9.508-12.421,10.797-21.328
		c1.996-13.793-6.524-16.357-6.264-26.409c0.242-9.315,11.736-19.721,27.466-25.166c15.573-5.391,25.133-3.592,31.794-5.596
		c6.23-1.874,10.229-5.457,7.623-19.42C248.979,23.275,252.218,0,252.218,0H0V137.462z"/>
</g>
<g id="Turnstile">
	<path fill="none" stroke="#EE2C2C" stroke-width="0.363" stroke-miterlimit="10" d="M41.916,148.949
		c0.07-2.724,3.174-2.865,5.808-4.234c3.024-1.573,5.923-1.784,6.897-1.452c5.323,1.815,6.865,4.054,13.278,4.114
		c12.946,0.12,16.643-6.166,25.078-5.229c5.445,0.605,7.865,7.865,4.598,11.737c-3.531,4.185-6.259,3.234-10.979,11.704
		c-2.769,4.969-5.75,9.47-9.018,16.487c-1.986,4.267-8.208,6.51-10.527,1.211c-1.693-3.872-2.379-6.799-10.075-16.972
		C49.837,156.879,41.794,153.668,41.916,148.949z"/>
</g>
<g id="IKS" display="none">
	<path display="inline" fill="none" stroke="#EE2C2C" stroke-width="0.363" stroke-miterlimit="10" d="M211.253,125.564
		c2.782-3.871,8.68-4.801,12.188-10.647c1.089-1.815,0.484-4.72,1.815-7.986c1.95-4.787,7.808-8.723,11.163-11.615
		c3.509-3.025,7.986-1.936,8.833,2.541s0.242,6.413,2.299,10.043c2.053,3.622,2.089,3.563,5.808,6.985
		c3.025,2.783,3.055,8.682-2.057,9.623c-4.598,0.847-7.326-1.399-11.979,0.483c-5.082,2.058-4.719,4.84-10.89,7.381
		c-5.107,2.104-8.954,3.146-14.036,1.211C209.316,131.646,211.253,125.564,211.253,125.564z"/>
</g>
<g id="AOFW" display="none">
	<path display="inline" fill="none" stroke="#EE2C2C" stroke-width="0.369" stroke-miterlimit="10" d="M133.518,155.939
		c-2.37-5.072,0.865-11.49,8.042-11.49c6.564,0,3.715,0.243,12.129-0.246c8.415-0.489,28.72-2.467,34.411,0.101
		c5.691,2.566,12.003,5.501,16.211,13.323c4.207,7.824,12.91,40.5,12.165,51.775c-0.371,5.623-7.047,8.403-16.095,9.778
		c-8.044,1.222-20.954-6.89-29.739-9.945c-8.354-2.907-19.005-0.855-25.739-2.935c-3.96-1.222-6.575-3.293-8.166-7.09
		c-1.485-3.544,0.494-7.7,0-13.445c-0.622-7.223,0.37-8.609,0.37-12.225C137.106,168.041,136.487,162.296,133.518,155.939z"/>
</g>
<g id="MCA" display="none">
	<path display="inline" fill="none" stroke="#EE2C2C" stroke-width="0.363" stroke-miterlimit="10" d="M213.826,315.241
		c-2.359-3.025,0.544-10.106,7.26-10.106c6.715,0,38.478,12.725,43.377,21.541c1.21,2.178,1.634,6.05,0.848,7.26
		c-2.099,3.226-6.171,2.903-9.741,1.814c-6.701-2.044-13.472-1.932-19.782,0.363c-3.327,1.21-5.747,1.573-7.865,0.363
		c-3.547-2.027-1.33-6.413-4.84-12.16C219.557,318.542,216.185,318.267,213.826,315.241z"/>
</g>
<g id="Adjusted" display="none">
</g>
<g id="Square" display="none">
	<rect display="inline" fill="none" stroke="#000000" stroke-width="0.3391" stroke-miterlimit="10" width="344.84" height="510"/>
</g>
</svg>
